<svg width="32" height="32" viewBox="0 0 32 32" fill="none" xmlns="http://www.w3.org/2000/svg">
<path fill-rule="evenodd" clip-rule="evenodd" d="M1.43479 0H30.5652C31.3577 0 32 0.642319 32 1.43479V30.5654C32 31.3577 31.3577 32 30.5652 32H1.43479C0.642319 32 0 31.3577 0 30.5654V1.43479C0 0.642319 0.642319 0 1.43479 0ZM28.563 5.71902V7.20643H20.5286V8.46559H26.2397V14.5241H24.7401V9.9721H20.508C20.5708 11.8355 19.9049 13.3628 18.5272 14.5139L18.4044 14.6166L17.4127 13.6268L17.5219 13.5031C17.6295 13.3814 17.7396 13.2628 17.8494 13.1447C18.091 12.8846 18.3191 12.6389 18.5153 12.3669C18.9542 11.7585 19.1478 11.0263 19.1432 9.99288C19.137 8.52709 19.1355 7.06114 19.1342 5.59535L19.1322 3.21309L19.311 3.21661C19.4414 3.21939 19.5726 3.21193 19.6995 3.2047L19.7083 3.20421C20.0026 3.18711 20.2807 3.17103 20.5274 3.27308L20.6523 3.32469L20.6343 3.45859C20.6174 3.58377 20.5995 3.70006 20.5824 3.81016L20.5821 3.8116C20.5476 4.0342 20.5177 4.22649 20.5101 4.41712C20.497 4.75004 20.4997 5.07901 20.5025 5.42696V5.42703V5.4271V5.42717V5.42725L20.5026 5.43766L20.5033 5.52578V5.52586V5.52593V5.52601V5.52608C20.5038 5.58737 20.5043 5.64889 20.5046 5.71064H23.3157V2.706H23.491C23.6138 2.706 23.733 2.70466 23.8494 2.70332L23.8647 2.70316C24.1344 2.70037 24.3894 2.69772 24.6476 2.71187C24.8948 2.72544 24.9791 2.84543 25.0072 2.91581C25.0416 3.00161 25.0479 3.14086 24.8827 3.31715C24.8487 3.35335 24.8329 3.38318 24.8309 3.39189C24.8264 4.04437 24.8267 4.70537 24.8271 5.38286V5.38309V5.38332V5.38355V5.38379V5.38722V5.71902H28.563ZM14.4776 13.5031C14.3698 13.3813 14.2597 13.2625 14.1498 13.1444L14.148 13.1424L14.148 13.1424C13.9073 12.8832 13.6799 12.6383 13.4844 12.367C13.0455 11.7585 12.8518 11.0264 12.8563 9.99292C12.8627 8.51473 12.864 7.03637 12.8653 5.55802L12.8673 3.21312L12.6885 3.21664C12.5548 3.21916 12.4209 3.21162 12.2914 3.20424C11.9966 3.18698 11.7188 3.1709 11.4721 3.27312L11.3473 3.32473L11.3654 3.45862C11.3819 3.58186 11.3997 3.69649 11.4165 3.80507L11.4165 3.80523L11.4173 3.8102L11.4182 3.81598C11.4523 4.03674 11.4819 4.22777 11.4894 4.41716C11.5028 4.75332 11.4999 5.08562 11.4969 5.43736C11.4962 5.52802 11.4956 5.61901 11.4951 5.71068H8.68381V2.70587H8.50852C8.38586 2.70587 8.26671 2.7047 8.15008 2.70336C7.87492 2.70034 7.61484 2.69749 7.35208 2.7119C7.10474 2.72548 7.02061 2.84529 6.99246 2.91568C6.95794 3.00148 6.95157 3.1409 7.11697 3.31719C7.14249 3.34434 7.15763 3.36782 7.16425 3.37806L7.16425 3.37807L7.16427 3.37809C7.16646 3.38149 7.1677 3.38342 7.16808 3.38355C7.17327 4.04481 7.17294 4.70625 7.17261 5.38419V5.38421V5.38423V5.38424L7.1726 5.38726L7.17244 5.71906H3.43666V7.20646H11.4713V8.46563H5.75994V14.5242H7.25958V9.97214H11.4915C11.4289 11.8356 12.0947 13.3629 13.4723 14.514L13.5951 14.6167L14.5868 13.6268L14.4776 13.5031ZM28.563 24.7935V26.2809H24.8271V26.6125V26.6156V26.6159V26.6161C24.8267 27.2941 24.8264 27.9551 24.8316 28.6166C24.8319 28.6166 24.8332 28.6186 24.8355 28.6221C24.8422 28.6324 24.8574 28.6558 24.8827 28.6828C25.0479 28.8591 25.0416 28.9985 25.0072 29.0843C24.9789 29.1545 24.8948 29.2746 24.6474 29.288C24.4934 29.2966 24.3401 29.2991 24.1841 29.2991C24.0888 29.2991 23.9923 29.2981 23.894 29.2971L23.8503 29.2966C23.7335 29.2953 23.6142 29.2939 23.491 29.2939H23.3157V26.2894H20.5046C20.5041 26.3809 20.5033 26.4718 20.5026 26.5623L20.5025 26.5727V26.5727V26.5728C20.4997 26.9208 20.497 27.2498 20.5101 27.583C20.5176 27.7722 20.5472 27.9634 20.5814 28.1843L20.5814 28.1843L20.5822 28.1894C20.5995 28.2997 20.6174 28.416 20.6343 28.5415L20.6523 28.6754L20.5274 28.7268C20.2806 28.8287 20.0026 28.8128 19.7078 28.7957L19.6984 28.7952L19.6983 28.7952C19.5719 28.7878 19.4419 28.7802 19.311 28.7831L19.1322 28.7867L19.1342 26.4046C19.1355 24.9388 19.137 23.4728 19.1432 22.0069C19.1478 20.9738 18.9542 20.2415 18.5153 19.633C18.3191 19.361 18.091 19.1153 17.8494 18.8553L17.848 18.8538L17.8479 18.8537C17.7386 18.7361 17.629 18.6181 17.5219 18.4968L17.4127 18.3733L18.4044 17.3834L18.5272 17.4862C19.9049 18.6371 20.5708 20.1644 20.508 22.0276H24.7401V17.4758H26.2397V23.5343H20.5286V24.7935H28.563ZM17.1027 16C17.1027 15.391 16.6091 14.8973 16.0001 14.8973C15.3913 14.8973 14.8976 15.391 14.8976 16C14.8976 16.609 15.3913 17.1025 16.0001 17.1025C16.6091 17.1025 17.1027 16.609 17.1027 16ZM11.4915 22.0277C11.4289 20.1645 12.0947 18.6372 13.4723 17.4861L13.5951 17.3834L14.5868 18.3732L14.4776 18.4969C14.3698 18.6187 14.2597 18.7376 14.1498 18.8557L14.148 18.8577C13.9073 19.1168 13.6799 19.3618 13.4844 19.6331C13.0455 20.2416 12.8518 20.9737 12.8563 22.007C12.8627 23.4853 12.864 24.9635 12.8653 26.4419L12.8675 28.4479L12.8673 28.7868L12.6885 28.7831C12.5553 28.7809 12.4214 28.7883 12.2917 28.7956C11.9971 28.8129 11.7189 28.8288 11.4721 28.7268L11.3473 28.6753L11.3654 28.5416C11.3819 28.418 11.3997 28.3032 11.4165 28.1945L11.4173 28.1894C11.452 27.9663 11.4818 27.7738 11.4894 27.5829C11.5028 27.2466 11.4999 26.9145 11.4969 26.5626V26.5625C11.4962 26.4719 11.4956 26.3809 11.4951 26.2894H8.68381V29.294H8.50852C8.38552 29.294 8.26621 29.2954 8.14941 29.2967C8.12523 29.2969 8.10117 29.2971 8.07721 29.2974C7.98874 29.2982 7.90167 29.299 7.81543 29.299C7.65941 29.299 7.50625 29.2967 7.35208 29.2881C7.1049 29.2747 7.02061 29.1548 6.99246 29.0844C6.95794 28.9984 6.95157 28.8592 7.1168 28.6827C7.15099 28.6465 7.16657 28.6168 7.16892 28.6081C7.17327 27.9552 7.17294 27.2942 7.17261 26.6162L7.1726 26.6126L7.17244 26.2808H3.43666V24.7934H11.4713V23.5344H5.75994V17.4757H7.25958V22.0277H11.4915Z" fill="white"/>
</svg>
