<svg width="56" height="56" viewBox="0 0 56 56" fill="none" xmlns="http://www.w3.org/2000/svg">
<path fill-rule="evenodd" clip-rule="evenodd" d="M2.51088 0H53.4891C54.8759 0 56 1.12406 56 2.51088V53.4894C56 54.8759 54.8759 56 53.4891 56H2.51088C1.12406 56 0 54.8759 0 53.4894V2.51088C0 1.12406 1.12406 0 2.51088 0ZM49.9853 10.0083V12.6112H35.925V14.8148H45.9195V25.4172H43.2952V17.4512H35.8889C35.9989 20.7122 34.8335 23.385 32.4226 25.3994L32.2077 25.5791L30.4722 23.8468L30.6634 23.6304C30.8516 23.4175 31.0443 23.2099 31.2364 23.0031C31.6593 22.548 32.0584 22.1181 32.4018 21.6421C33.1698 20.5773 33.5086 19.2961 33.5006 17.4875C33.4898 14.9224 33.4872 12.357 33.4848 9.79186L33.4813 5.6229L33.7942 5.62906C34.0224 5.63393 34.252 5.62088 34.4742 5.60823L34.4742 5.60823L34.4895 5.60736C35.0045 5.57745 35.4913 5.5493 35.923 5.72789L36.1414 5.81821L36.1101 6.05253C36.0804 6.27159 36.0491 6.47511 36.0191 6.66778L36.0187 6.67034L36.0187 6.67049C35.9582 7.05996 35.9059 7.39642 35.8928 7.72996C35.8698 8.31261 35.8745 8.88836 35.8794 9.49733V9.49747V9.4976V9.49775V9.49789L35.8796 9.51591L35.8808 9.67002L35.8808 9.67943L35.8809 9.68039C35.8817 9.78442 35.8825 9.88883 35.8831 9.99362H40.8025V4.7355H41.1092C41.3242 4.7355 41.5327 4.73316 41.7365 4.73081L41.7632 4.73053H41.7633C42.2352 4.72564 42.6814 4.72101 43.1333 4.74577C43.5659 4.76952 43.7134 4.9795 43.7626 5.10266C43.8227 5.25281 43.8339 5.49651 43.5447 5.80502C43.4852 5.86836 43.4576 5.92056 43.4541 5.93581C43.4462 7.0773 43.4468 8.23367 43.4474 9.4189V9.42007V9.42764V10.0083H49.9853ZM25.3358 23.6305C25.1472 23.4173 24.9545 23.2094 24.7622 23.0026L24.759 22.9992C24.3379 22.5457 23.9399 22.117 23.5976 21.6422C22.8296 20.5774 22.4906 19.2961 22.4985 17.4876C22.5096 14.9013 22.512 12.3148 22.5143 9.72821V9.72653L22.5179 5.62297L22.2049 5.62913C21.9709 5.63352 21.7366 5.62033 21.5099 5.60743C20.9941 5.57722 20.5079 5.54907 20.0762 5.72795L19.8577 5.81828L19.8894 6.05259C19.9182 6.26809 19.9493 6.46854 19.9788 6.65842L19.9789 6.65879L19.9789 6.65901L19.9803 6.66785L19.9819 6.67798C20.0416 7.0643 20.0933 7.39861 20.1064 7.73003C20.1299 8.3183 20.1249 8.89983 20.1196 9.51538C20.1184 9.67404 20.1172 9.83328 20.1164 9.99369H15.1967V4.73528H14.8899C14.6752 4.73528 14.4667 4.73322 14.2626 4.73088C13.7811 4.7256 13.326 4.72061 12.8661 4.74583C12.4333 4.76959 12.2861 4.97927 12.2368 5.10243C12.1764 5.25258 12.1653 5.49657 12.4547 5.80508C12.4993 5.85259 12.5259 5.89367 12.5374 5.91161C12.5413 5.91758 12.5435 5.92099 12.5441 5.92121C12.5532 7.07845 12.5526 8.23599 12.5521 9.42243L12.5521 9.4277L12.5518 10.0084H6.01416V12.6113H20.0747V14.8149H10.0799V25.4173H12.7043V17.4512H20.1102C20.0005 20.7123 21.1656 23.385 23.5765 25.3994L23.7915 25.5792L25.527 23.8469L25.3358 23.6305ZM49.9853 43.3886V45.9916H43.4474V46.5719V46.5787C43.4468 47.7649 43.4462 48.9217 43.4553 50.079C43.4559 50.0791 43.4581 50.0825 43.4621 50.0887L43.4621 50.0887C43.4738 50.1067 43.5004 50.1477 43.5447 50.1948C43.8339 50.5033 43.8227 50.7473 43.7626 50.8975C43.7131 51.0204 43.5659 51.2306 43.133 51.2541C42.8635 51.269 42.5952 51.2734 42.3221 51.2734C42.1554 51.2734 41.9866 51.2717 41.8146 51.2698L41.738 51.269C41.5336 51.2667 41.3248 51.2643 41.1092 51.2643H40.8025V46.0065H35.8831C35.8825 46.1146 35.8816 46.2222 35.8808 46.3295L35.8796 46.4839L35.8794 46.502V46.5021V46.5022C35.8745 47.1113 35.8698 47.6872 35.8928 48.2702C35.9058 48.6014 35.9576 48.936 36.0175 49.3225L36.0189 49.3315C36.0491 49.5244 36.0804 49.728 36.1101 49.9476L36.1414 50.1819L35.923 50.272C35.491 50.4503 35.0045 50.4224 34.4886 50.3925L34.4721 50.3915C34.2509 50.3786 34.0234 50.3653 33.7942 50.3705L33.4813 50.3767L33.4848 46.208C33.4872 43.6429 33.4898 41.0774 33.5006 38.512C33.5086 36.7041 33.1698 35.4225 32.4018 34.3577C32.0584 33.8818 31.6593 33.4518 31.2364 32.9967L31.2338 32.9939C31.0426 32.7881 30.8508 32.5817 30.6634 32.3694L30.4722 32.1533L32.2077 30.421L32.4226 30.6008C34.8335 32.6149 35.9989 35.2876 35.8889 38.5484H43.2952V30.5826H45.9195V41.1851H35.925V43.3886H49.9853ZM29.9298 28C29.9298 26.9343 29.0658 26.0703 28.0001 26.0703C26.9347 26.0703 26.0708 26.9343 26.0708 28C26.0708 29.0657 26.9347 29.9293 28.0001 29.9293C29.0658 29.9293 29.9298 29.0657 29.9298 28ZM20.1102 38.5485C20.0005 35.2878 21.1656 32.6151 23.5765 30.6007L23.7915 30.4209L25.527 32.1532L25.3358 32.3696C25.1472 32.5828 24.9545 32.7907 24.7622 32.9975L24.759 33.0008C24.3379 33.4544 23.9399 33.8831 23.5976 34.3579C22.8296 35.4227 22.4906 36.704 22.4985 38.5122C22.5096 41.0988 22.512 43.6852 22.5143 46.2718V46.2733L22.5181 49.7839L22.5179 50.3768L22.2049 50.3704C21.9718 50.3666 21.7375 50.3795 21.5105 50.3924C20.995 50.4226 20.5082 50.4504 20.0762 50.2718L19.8577 50.1818L19.8894 49.9478C19.9182 49.7316 19.9494 49.5308 19.9789 49.3405L19.9803 49.3314C20.041 48.941 20.0932 48.6041 20.1064 48.2701C20.1298 47.6816 20.1249 47.1004 20.1196 46.4847V46.4844C20.1184 46.3258 20.1172 46.1665 20.1164 46.0064H15.1967V51.2645H14.8899C14.6747 51.2645 14.4659 51.2669 14.2615 51.2692C14.2193 51.2696 14.1774 51.27 14.1357 51.2704C13.9807 51.2719 13.8281 51.2733 13.677 51.2733C13.404 51.2733 13.1359 51.2692 12.8661 51.2543C12.4336 51.2308 12.2861 51.0208 12.2368 50.8977C12.1764 50.7472 12.1653 50.5035 12.4544 50.1947C12.5142 50.1314 12.5415 50.0795 12.5456 50.0642C12.5532 48.9218 12.5526 47.7651 12.5521 46.5788L12.5521 46.5721L12.5518 45.9914H6.01416V43.3885H20.0747V41.1852H10.0799V30.5825H12.7043V38.5485H20.1102Z" fill="white"/>
</svg>
